<?xml version="1.0" encoding="UTF-8"?>
<svg width="2216px" height="2210px" viewBox="0 0 2216 2210" version="1.1" xmlns="http://www.w3.org/2000/svg" xmlns:xlink="http://www.w3.org/1999/xlink">
    <!-- Generator: Sketch 43.2 (39069) - http://www.bohemiancoding.com/sketch -->
    <title>Group</title>
    <desc>Created with Sketch.</desc>
    <defs>
        <linearGradient x1="50%" y1="0%" x2="50%" y2="100%" id="linearGradient-1">
            <stop stop-color="#21B05E" offset="0%"></stop>
            <stop stop-color="#144DD0" offset="100%"></stop>
        </linearGradient>
    </defs>
    <g id="Page-1" stroke="none" stroke-width="1" fill="none" fill-rule="evenodd">
        <g id="Group-7" transform="translate(117.000000, 151.000000)">
            <g id="TRACKING/Statistic-Bar-Graph" transform="translate(0.000000, 377.000000)">
                <rect id="BG" fill="#FFFFFF" x="0" y="0" width="640" height="1136"></rect>
                <g id="Likes-Received" stroke-width="1" transform="translate(0.000000, 752.000000)">
                    <polygon id="Divider" fill="#AAAAAA" points="0 106 640 106 640 107 0 107"></polygon>
                    <g id="Stats" transform="translate(419.000000, 4.000000)">
                        <path d="M90,10 L102,10 L102,70 L90,70 L90,10 Z M72,10 L84,10 L84,70 L72,70 L72,10 Z M54,0 L66,0 L66,70 L54,70 L54,0 Z M36,30 L48,30 L48,70 L36,70 L36,30 Z M18,10 L30,10 L30,70 L18,70 L18,10 Z M0,20 L12,20 L12,70 L0,70 L0,20 Z" id="Shape" fill="url(#linearGradient-1)"></path>
                        <polygon id="Shape" fill="#000000" points="108 30 120 30 120 70 108 70"></polygon>
                    </g>
                    <text id="TRAIL-POINTS-INCOMPL" font-family="OpenSans-Light, Open Sans" font-size="20" font-weight="300" letter-spacing="1.20000005" fill="#1C1C1C">
                        <tspan x="34" y="78">TRAIL POINTS INCOMPLETE</tspan>
                    </text>
                    <text id="2321" font-family="OpenSans, Open Sans" font-size="48" font-weight="normal" fill="#1C1C1C">
                        <tspan x="34" y="51">2321</tspan>
                    </text>
                    <polyline id="Arrow" fill="#000000" points="581.003 38.78 594.494 52.009 607.998 38.766 605.165 35.989 594.494 46.453 583.836 36.003 581.003 38.78"></polyline>
                </g>
                <g id="Comments" stroke-width="1" transform="translate(0.000000, 872.000000)">
                    <polygon id="Divider" fill="#AAAAAA" points="0 106 640 106 640 107 0 107"></polygon>
                    <g id="Stats" transform="translate(419.000000, 4.000000)">
                        <path d="M90,10 L102,10 L102,70 L90,70 L90,10 Z M72,10 L84,10 L84,70 L72,70 L72,10 Z M54,0 L66,0 L66,70 L54,70 L54,0 Z M36,30 L48,30 L48,70 L36,70 L36,30 Z M18,10 L30,10 L30,70 L18,70 L18,10 Z M0,20 L12,20 L12,70 L0,70 L0,20 Z" id="Shape" fill="url(#linearGradient-1)"></path>
                        <polygon id="Shape" fill="#000000" points="108 30 120 30 120 70 108 70"></polygon>
                    </g>
                    <text id="TRAIL-POINTS-COMPLET" font-family="OpenSans-Light, Open Sans" font-size="20" font-weight="300" letter-spacing="1.20000005" fill="#1C1C1C">
                        <tspan x="34" y="78">TRAIL POINTS COMPLETE</tspan>
                    </text>
                    <text id="653" font-family="OpenSans, Open Sans" font-size="48" font-weight="normal" fill="#1C1C1C">
                        <tspan x="34" y="51">653</tspan>
                    </text>
                    <polyline id="Arrow" fill="#000000" points="581.003 38.78 594.494 52.009 607.998 38.766 605.165 35.989 594.494 46.453 583.836 36.003 581.003 38.78"></polyline>
                </g>
                <g id="Profile-Views" stroke-width="1" transform="translate(0.000000, 992.000000)">
                    <polygon id="Divider" fill="#AAAAAA" points="0 106 640 106 640 107 0 107"></polygon>
                    <g id="Stats" transform="translate(419.000000, 4.000000)">
                        <path d="M90,10 L102,10 L102,70 L90,70 L90,10 Z M72,10 L84,10 L84,70 L72,70 L72,10 Z M54,0 L66,0 L66,70 L54,70 L54,0 Z M36,30 L48,30 L48,70 L36,70 L36,30 Z M18,10 L30,10 L30,70 L18,70 L18,10 Z M0,20 L12,20 L12,70 L0,70 L0,20 Z" id="Shape" fill="url(#linearGradient-1)"></path>
                        <polygon id="Shape" fill="#000000" points="108 30 120 30 120 70 108 70"></polygon>
                    </g>
                    <text id="SAVED-POINTS" font-family="OpenSans-Light, Open Sans" font-size="20" font-weight="300" letter-spacing="1.20000005" fill="#1C1C1C">
                        <tspan x="34" y="78">SAVED POINTS</tspan>
                    </text>
                    <text id="1363" font-family="OpenSans, Open Sans" font-size="48" font-weight="normal" fill="#1C1C1C">
                        <tspan x="34" y="51">1363</tspan>
                    </text>
                    <polyline id="Arrow" fill="#000000" points="581.003 38.78 594.494 52.009 607.998 38.766 605.165 35.989 594.494 46.453 583.836 36.003 581.003 38.78"></polyline>
                </g>
                <g id="Stats" stroke-width="1" transform="translate(0.000000, 128.000000)">
                    <rect id="Bg" fill="#1C1C1C" x="0" y="0" width="640" height="610"></rect>
                    <g id="Button-+-DETAILS" transform="translate(409.000000, 515.000000)">
                        <path d="M30,1 L170,1 C186.015715,1 199,13.9842847 199,30 C199,46.0157153 186.015715,59 170,59 L30,59 C13.9836353,59 1,46.0160658 1,30 C1,13.9839342 13.9836353,1 30,1 Z" id="Button" stroke="#8E8E8E" stroke-width="2"></path>
                        <text id="DETAILS" font-family="OpenSans-Light, Open Sans" font-size="24" font-weight="300" letter-spacing="1.5" fill="#8F8F8F">
                            <tspan x="51" y="38">DETAILS</tspan>
                        </text>
                    </g>
                    <g id="VIEWS-+-69863" transform="translate(30.000000, 498.000000)" fill="#FFFFFF">
                        <text id="VIEWS" font-family="OpenSans-Light, Open Sans" font-size="20" font-weight="300" letter-spacing="1">
                            <tspan x="3" y="75">VIEWS</tspan>
                        </text>
                        <text id="69863" font-family="OpenSans, Open Sans" font-size="45" font-weight="normal" letter-spacing="2.5">
                            <tspan x="0" y="48">69863</tspan>
                        </text>
                    </g>
                    <g id="Graph" transform="translate(25.000000, 108.000000)">
                        <path d="M55,73 L585,73 L585,74 L55,74 L55,73 Z M55,194 L585,194 L585,195 L55,195 L55,194 Z M55,134 L585,134 L585,135 L55,135 L55,134 Z M55,13 L585,13 L585,14 L55,14 L55,13 Z M55,254 L585,254 L585,255 L55,255 L55,254 Z M55,314 L585,314 L585,315 L55,315 L55,314 Z" id="Shape" fill="#2A2A2A"></path>
                        <g id="Values" font-size="20" font-family="OpenSans-Light, Open Sans" font-weight="300">
                            <text id="1KK" fill="#A4A4A4">
                                <tspan x="0" y="21">1KK</tspan>
                            </text>
                            <text id="80K" fill="#A4A4A4">
                                <tspan x="0" y="81">80K</tspan>
                            </text>
                            <text id="60K" fill="#A4A4A4">
                                <tspan x="0" y="141">60K</tspan>
                            </text>
                            <text id="40K" fill="#A4A4A4">
                                <tspan x="0" y="202">40K</tspan>
                            </text>
                            <text id="20K" fill="#A4A4A4">
                                <tspan x="0" y="262">20K</tspan>
                            </text>
                            <text id="0" fill="#A4A4A4">
                                <tspan x="24" y="322">0</tspan>
                            </text>
                            <text id="MON" fill="#494949">
                                <tspan x="51" y="354">MON</tspan>
                            </text>
                            <text id="TUE" fill="#494949">
                                <tspan x="138" y="354">TUE</tspan>
                            </text>
                            <text id="WED" fill="#494949">
                                <tspan x="218" y="354">WED</tspan>
                            </text>
                            <text id="THU" fill="#494949">
                                <tspan x="302" y="354">THU</tspan>
                            </text>
                            <text id="FRI" fill="#494949">
                                <tspan x="387" y="354">FRI</tspan>
                            </text>
                            <text id="SAT" fill="#494949">
                                <tspan x="467" y="354">SAT</tspan>
                            </text>
                            <text id="SUN" fill="#FFFFFF">
                                <tspan x="547" y="354">SUN</tspan>
                            </text>
                        </g>
                        <g id="Lines" transform="translate(55.000000, 20.000000)">
                            <polygon id="Shape" fill="url(#linearGradient-1)" points="0 86.999 40 86.999 40 293.999 0 293.999"></polygon>
                            <polygon id="Shape" fill="url(#linearGradient-1)" points="81 121.999 121 121.999 121 293.999 81 293.999"></polygon>
                            <polygon id="Shape" fill="url(#linearGradient-1)" points="163 208 203 208 203 294 163 294"></polygon>
                            <polygon id="Shape" fill="url(#linearGradient-1)" points="245 -0.001 285 -0.001 285 293.999 245 293.999"></polygon>
                            <polygon id="Shape" fill="url(#linearGradient-1)" points="327 86.999 367 86.999 367 293.999 327 293.999"></polygon>
                            <polygon id="Shape" fill="url(#linearGradient-1)" points="409 121.999 449 121.999 449 293.999 409 293.999"></polygon>
                            <polygon id="Shape" fill="#E9E9E9" points="490 86.999 530 86.999 530 293.999 490 293.999"></polygon>
                        </g>
                    </g>
                    <g id="Calendar-+-THIS--WEEK-+-Shape" transform="translate(228.000000, 44.000000)" fill="#FFFFFF">
                        <g id="Calendar" transform="translate(0.000000, 2.000000)">
                            <path d="M7.826,16.946 C8.509,16.946 9.063,17.509 9.063,18.205 L9.063,20.07 C9.063,20.765 8.509,21.328 7.826,21.328 L5.993,21.328 C5.31,21.328 4.756,20.765 4.756,20.07 L4.756,18.205 C4.756,17.509 5.309,16.946 5.993,16.946 L7.826,16.946 Z M13.203,16.946 C13.886,16.946 14.44,17.509 14.44,18.205 L14.44,20.07 C14.44,20.765 13.886,21.328 13.203,21.328 L11.373,21.328 C10.689,21.328 10.133,20.765 10.133,20.07 L10.133,18.205 C10.133,17.509 10.689,16.946 11.373,16.946 L13.203,16.946 Z M13.203,11.476 C13.886,11.476 14.44,12.039 14.44,12.735 L14.44,14.6 C14.44,15.293 13.886,15.859 13.203,15.859 L11.373,15.859 C10.689,15.859 10.133,15.292 10.133,14.6 L10.133,12.735 C10.133,12.039 10.689,11.476 11.373,11.476 L13.203,11.476 Z M18.583,11.476 C19.266,11.476 19.819,12.039 19.82,12.735 L19.82,14.6 C19.82,15.293 19.267,15.859 18.583,15.859 L16.75,15.859 C16.066,15.859 15.513,15.292 15.513,14.6 L15.513,12.735 C15.513,12.039 16.066,11.476 16.75,11.476 L18.583,11.476 Z M18.583,16.946 C19.266,16.946 19.819,17.509 19.82,18.205 L19.82,20.07 C19.82,20.765 19.267,21.328 18.583,21.328 L16.75,21.328 C16.066,21.328 15.513,20.765 15.513,20.07 L15.513,18.205 C15.513,17.509 16.066,16.946 16.75,16.946 L18.583,16.946 Z M23.959,16.946 C24.643,16.946 25.196,17.509 25.196,18.205 L25.196,20.07 C25.196,20.765 24.642,21.328 23.959,21.328 L22.126,21.328 C21.445,21.328 20.889,20.765 20.889,20.07 L20.889,18.205 C20.889,17.509 21.445,16.946 22.126,16.946 L23.959,16.946 Z M23.959,11.476 C24.643,11.476 25.196,12.039 25.196,12.735 L25.196,14.6 C25.196,15.293 24.642,15.859 23.959,15.859 L22.126,15.859 C21.445,15.859 20.889,15.292 20.889,14.6 L20.889,12.735 C20.889,12.039 21.445,11.476 22.126,11.476 L23.959,11.476 Z" id="Shape"></path>
                            <path d="M27.913,0.35 L26.588,0.35 C26.077,0.35 25.665,0.772 25.665,1.292 L25.665,3.505 C25.665,5.14 24.36,6.464 22.756,6.464 C21.149,6.464 19.847,5.139 19.847,3.505 L19.847,1.292 C19.847,0.772 19.432,0.35 18.921,0.35 L11.214,0.35 C10.703,0.35 10.288,0.772 10.288,1.292 L10.288,3.505 C10.288,5.14 8.986,6.464 7.382,6.464 C5.775,6.464 4.473,5.139 4.473,3.505 L4.473,1.292 C4.473,0.772 4.058,0.35 3.547,0.35 L2.087,0.35 C0.938,0.35 0.006,1.298 0.006,2.468 L0.006,25.903 C0.006,27.072 0.938,28.02 2.087,28.02 L27.912,28.02 C29.061,28.02 29.993,27.072 29.993,25.903 L29.993,2.468 C29.994,1.298 29.062,0.35 27.913,0.35 L27.913,0.35 Z M27.221,24.256 C27.221,24.276 27.221,24.296 27.218,24.316 C27.19,24.793 26.811,25.172 26.343,25.195 C26.326,25.198 26.312,25.198 26.295,25.198 C26.281,25.198 26.264,25.198 26.25,25.195 L3.754,25.195 C3.737,25.198 3.723,25.198 3.706,25.198 C3.692,25.198 3.675,25.198 3.658,25.195 C3.186,25.172 2.808,24.784 2.783,24.305 L2.783,24.256 L2.783,24.207 L2.783,8.872 L2.783,8.823 L2.783,8.777 C2.808,8.277 3.212,7.883 3.706,7.883 L26.295,7.883 C26.786,7.883 27.19,8.271 27.218,8.762 C27.221,8.782 27.221,8.802 27.221,8.822 C27.221,8.845 27.221,8.862 27.218,8.882 L27.218,24.194 C27.221,24.216 27.221,24.236 27.221,24.256 L27.221,24.256 Z" id="Shape"></path>
                        </g>
                        <text id="THIS--WEEK" font-family="OpenSans, Open Sans" font-size="24" font-weight="normal">
                            <tspan x="53" y="26">THIS  WEEK</tspan>
                        </text>
                        <polyline id="Shape" points="200.001 13.737 207.995 22.005 215.997 13.728 214.319 11.992 207.995 18.533 201.679 12.001 200.001 13.737"></polyline>
                    </g>
                </g>
                <g id="Navigation-Bar" stroke-width="1" transform="translate(29.000000, 57.000000)">
                    <path d="M0,17 L30,17 L30,20 L0,20 L0,17 Z M0,26 L30,26 L30,29 L0,29 L0,26 Z M0,35 L30,35 L30,38 L0,38 L0,35 Z" id="Menu" fill="#000000"></path>
                    <text id="Statistic" font-family="OpenSans, Open Sans" font-size="34" font-weight="normal" fill="#1D1D1D">
                        <tspan x="229" y="36.492">Statistic</tspan>
                    </text>
                </g>
            </g>
            <g id="TRACKING/Stats---Point-Chart" transform="translate(1342.000000, 377.000000)">
                <rect id="BG" fill="#FFFFFF" x="0" y="0" width="640" height="1136"></rect>
                <g id="Group" stroke-width="1" transform="translate(0.000000, 881.000000)">
                    <path d="M59,36 C59,41.523 54.523,46 49,46 C43.477,46 39,41.523 39,36 C39,30.477 43.477,26 49,26 C54.523,26 59,30.477 59,36 Z" id="Shape" fill="#22C164"></path>
                    <text id="TRAIL-POINTS-COMPLET" font-family="OpenSans, Open Sans" font-size="20" font-weight="normal" letter-spacing="1" fill="#333333">
                        <tspan x="92" y="43">TRAIL POINTS COMPLETE</tspan>
                    </text>
                    <polygon id="Shape" fill="#AAAAAA" points="0 97 640 97 640 98 0 98"></polygon>
                    <polyline id="Arrow" fill="#1B1B1B" points="589.78 48.996 603.009 35.506 589.766 22.002 586.989 24.835 597.453 35.507 587.002 46.165 589.78 48.996"></polyline>
                    <text id="653" font-family="OpenSans-Semibold, Open Sans" font-size="50" font-weight="500" fill="#333333">
                        <tspan x="467" y="53">653</tspan>
                    </text>
                </g>
                <g id="Group-2" stroke-width="1" transform="translate(0.000000, 761.000000)">
                    <path d="M59,36 C59,41.523 54.523,46 49,46 C43.477,46 39,41.523 39,36 C39,30.477 43.477,26 49,26 C54.523,26 59,30.477 59,36 Z" id="Shape" fill="#F7921C"></path>
                    <text id="TRAIL-POINTS-INCOMPL" font-family="OpenSans, Open Sans" font-size="20" font-weight="normal" letter-spacing="1" fill="#333333">
                        <tspan x="92" y="43">TRAIL POINTS INCOMPLETE</tspan>
                    </text>
                    <polygon id="Shape" fill="#AAAAAA" points="0 97 640 97 640 98 0 98"></polygon>
                    <polyline id="Arrow" fill="#1B1B1B" points="589.78 48.996 603.009 35.506 589.766 22.002 586.989 24.835 597.453 35.507 587.002 46.165 589.78 48.996"></polyline>
                    <text id="2321" font-family="OpenSans-Semibold, Open Sans" font-size="50" font-weight="500" fill="#333333">
                        <tspan x="447" y="53">2321</tspan>
                    </text>
                </g>
                <g id="Stats" stroke-width="1" transform="translate(0.000000, 129.000000)">
                    <rect id="BG" fill="#1C1C1C" x="0" y="0" width="640" height="610"></rect>
                    <path d="M549.774,181 L549.774,122 L550.778,122 L550.778,181 L609,181 L609,182 L550.778,182 L550.778,242 L609,242 L609,243 L550.778,243 L550.778,302 L609,302 L609,303 L550.778,303 L550.778,362 L609,362 L609,363 L550.778,363 L550.778,422 L609,422 L609,423 L550.778,423 L550.778,482 L609,482 L609,483 L550.778,483 L550.778,542 L549.774,542 L549.774,483 L490.556,483 L490.556,542 L489.553,542 L489.553,483 L430.335,483 L430.335,542 L429.332,542 L429.332,483 L370.114,483 L370.114,542 L369.11,542 L369.11,483 L309.892,483 L309.892,542 L308.889,542 L308.889,483 L249.671,483 L249.671,542 L248.668,542 L248.668,483 L189.45,483 L189.45,542 L188.446,542 L188.446,483 L128.225,483 L128.225,542 L127.221,542 L127.221,483 L68.004,483 L68.004,542 L67,542 L67,122 L68.004,122 L68.004,181 L127.221,181 L127.221,122 L128.225,122 L128.225,181 L188.446,181 L188.446,122 L189.45,122 L189.45,181 L248.668,181 L248.668,122 L249.671,122 L249.671,181 L308.889,181 L308.889,122 L309.892,122 L309.892,181 L369.11,181 L369.11,122 L370.114,122 L370.114,181 L429.332,181 L429.332,122 L430.335,122 L430.335,181 L489.553,181 L489.553,122 L490.556,122 L490.556,181 L549.774,181 Z M549.774,182 L490.556,182 L490.556,242 L549.774,242 L549.774,182 Z M549.774,243 L490.556,243 L490.556,302 L549.774,302 L549.774,243 Z M549.774,303 L490.556,303 L490.556,362 L549.774,362 L549.774,303 Z M549.774,363 L490.556,363 L490.556,422 L549.774,422 L549.774,363 Z M549.774,423 L490.556,423 L490.556,482 L549.774,482 L549.774,423 Z M489.553,482 L489.553,423 L430.335,423 L430.335,482 L489.553,482 Z M489.553,422 L489.553,363 L430.335,363 L430.335,422 L489.553,422 Z M489.553,362 L489.553,303 L430.335,303 L430.335,362 L489.553,362 Z M489.553,302 L489.553,243 L430.335,243 L430.335,302 L489.553,302 Z M489.553,242 L489.553,182 L430.335,182 L430.335,242 L489.553,242 Z M429.332,182 L370.114,182 L370.114,242 L429.332,242 L429.332,182 Z M429.332,243 L370.114,243 L370.114,302 L429.332,302 L429.332,243 Z M429.332,303 L370.114,303 L370.114,362 L429.332,362 L429.332,303 Z M429.332,363 L370.114,363 L370.114,422 L429.332,422 L429.332,363 Z M429.332,423 L370.114,423 L370.114,482 L429.332,482 L429.332,423 Z M369.11,482 L369.11,423 L309.892,423 L309.892,482 L369.11,482 Z M369.11,422 L369.11,363 L309.892,363 L309.892,422 L369.11,422 Z M369.11,362 L369.11,303 L309.892,303 L309.892,362 L369.11,362 Z M369.11,302 L369.11,243 L309.892,243 L309.892,302 L369.11,302 Z M369.11,242 L369.11,182 L309.892,182 L309.892,242 L369.11,242 Z M308.889,182 L249.671,182 L249.671,242 L308.889,242 L308.889,182 Z M308.889,243 L249.671,243 L249.671,302 L308.889,302 L308.889,243 Z M308.889,303 L249.671,303 L249.671,362 L308.889,362 L308.889,303 Z M308.889,363 L249.671,363 L249.671,422 L308.889,422 L308.889,363 Z M308.889,423 L249.671,423 L249.671,482 L308.889,482 L308.889,423 Z M68.004,182 L68.004,242 L127.221,242 L127.221,182 L68.004,182 Z M68.004,243 L68.004,302 L127.221,302 L127.221,243 L68.004,243 Z M68.004,303 L68.004,362 L127.221,362 L127.221,303 L68.004,303 Z M68.004,363 L68.004,422 L127.221,422 L127.221,363 L68.004,363 Z M68.004,423 L68.004,482 L127.221,482 L127.221,423 L68.004,423 Z M189.45,482 L248.668,482 L248.668,423 L189.45,423 L189.45,482 Z M188.446,482 L188.446,423 L128.225,423 L128.225,482 L188.446,482 Z M189.45,422 L248.668,422 L248.668,363 L189.45,363 L189.45,422 Z M188.446,422 L188.446,363 L128.225,363 L128.225,422 L188.446,422 Z M189.45,362 L248.668,362 L248.668,303 L189.45,303 L189.45,362 Z M188.446,362 L188.446,303 L128.225,303 L128.225,362 L188.446,362 Z M189.45,302 L248.668,302 L248.668,243 L189.45,243 L189.45,302 Z M188.446,302 L188.446,243 L128.225,243 L128.225,302 L188.446,302 Z M189.45,242 L248.668,242 L248.668,182 L189.45,182 L189.45,242 Z M188.446,242 L188.446,182 L128.225,182 L128.225,242 L188.446,242 Z M68,121 L609,121 L609,122 L68,122 L68,121 Z M68,542 L609,542 L609,543 L68,543 L68,542 Z M609.996,542 L609.996,122 L611,122 L611,542 L609.996,542 Z" id="Lines" fill="#292929"></path>
                    <path d="M168,216 C173.523,216 178,220.477 178,226 C178,231.523 173.523,236 168,236 C162.477,236 158,231.523 158,226 C158,220.477 162.477,216 168,216 Z M213,179 C218.523,179 223,183.477 223,189 C223,194.523 218.523,199 213,199 C207.477,199 203,194.523 203,189 C203,183.477 207.477,179 213,179 Z M186,296 C191.523,296 196,300.477 196,306 C196,311.523 191.523,316 186,316 C180.477,316 176,311.523 176,306 C176,300.477 180.477,296 186,296 Z M130,363 C135.523,363 140,367.477 140,373 C140,378.523 135.523,383 130,383 C124.477,383 120,378.523 120,373 C120,367.477 124.477,363 130,363 Z M255,343 C260.523,343 265,347.477 265,353 C265,358.523 260.523,363 255,363 C249.477,363 245,358.523 245,353 C245,347.477 249.477,343 255,343 Z M374,276 C379.523,276 384,280.477 384,286 C384,291.523 379.523,296 374,296 C368.477,296 364,291.523 364,286 C364,280.477 368.477,276 374,276 Z M426,216 C431.523,216 436,220.477 436,226 C436,231.523 431.523,236 426,236 C420.477,236 416,231.523 416,226 C416,220.477 420.477,216 426,216 Z M490,303 C495.523,303 500,307.477 500,313 C500,318.523 495.523,323 490,323 C484.477,323 480,318.523 480,313 C480,307.477 484.477,303 490,303 Z M406,403 C411.523,403 416,407.477 416,413 C416,418.523 411.523,423 406,423 C400.477,423 396,418.523 396,413 C396,407.477 400.477,403 406,403 Z M484,439 C489.523,439 494,443.477 494,449 C494,454.523 489.523,459 484,459 C478.477,459 474,454.523 474,449 C474,443.477 478.477,439 484,439 Z M534,266 C539.523,266 544,270.477 544,276 C544,281.523 539.523,286 534,286 C528.477,286 524,281.523 524,276 C524,270.477 528.477,266 534,266 Z M560,370 C565.523,370 570,374.477 570,380 C570,385.523 565.523,390 560,390 C554.477,390 550,385.523 550,380 C550,374.477 554.477,370 560,370 Z M184,439 C189.523,439 194,443.477 194,449 C194,454.523 189.523,459 184,459 C178.477,459 174,454.523 174,449 C174,443.477 178.477,439 184,439 Z" id="Orange" stroke="#F7941D" stroke-width="2"></path>
                    <path d="M125,169 C130.523,169 135,173.477 135,179 C135,184.523 130.523,189 125,189 C119.477,189 115,184.523 115,179 C115,173.477 119.477,169 125,169 Z M289,155 C294.523,155 299,159.477 299,165 C299,170.523 294.523,175 289,175 C283.477,175 279,170.523 279,165 C279,159.477 283.477,155 289,155 Z M247,223 C252.523,223 257,227.477 257,233 C257,238.523 252.523,243 247,243 C241.477,243 237,238.523 237,233 C237,227.477 241.477,223 247,223 Z M399,250 C404.523,250 409,254.477 409,260 C409,265.523 404.523,270 399,270 C393.477,270 389,265.523 389,260 C389,254.477 393.477,250 399,250 Z M363,316 C368.523,316 373,320.477 373,326 C373,331.523 368.523,336 363,336 C357.477,336 353,331.523 353,326 C353,320.477 357.477,316 363,316 Z M218,283 C223.523,283 228,287.477 228,293 C228,298.523 223.523,303 218,303 C212.477,303 208,298.523 208,293 C208,287.477 212.477,283 218,283 Z M268,429 C273.523,429 278,433.477 278,439 C278,444.523 273.523,449 268,449 C262.477,449 258,444.523 258,439 C258,433.477 262.477,429 268,429 Z M534,213 C539.523,213 544,217.477 544,223 C544,228.523 539.523,233 534,233 C528.477,233 524,228.523 524,223 C524,217.477 528.477,213 534,213 Z M500,363 C505.523,363 510,367.477 510,373 C510,378.523 505.523,383 500,383 C494.477,383 490,378.523 490,373 C490,367.477 494.477,363 500,363 Z M552,396 C557.523,396 562,400.477 562,406 C562,411.523 557.523,416 552,416 C546.477,416 542,411.523 542,406 C542,400.477 546.477,396 552,396 Z M587,356 C592.523,356 597,360.477 597,366 C597,371.523 592.523,376 587,376 C581.477,376 577,371.523 577,366 C577,360.477 581.477,356 587,356 Z M113,286 C118.523,286 123,290.477 123,296 C123,301.523 118.523,306 113,306 C107.477,306 103,301.523 103,296 C103,290.477 107.477,286 113,286 Z" id="Shape" stroke="#25BE63" stroke-width="2"></path>
                    <g id="Selector" transform="translate(228.000000, 44.000000)" fill="#FFFFFF">
                        <g id="Calendar-Icon-+-Shape" transform="translate(0.000000, 2.000000)">
                            <path d="M27.913,0.35 L26.588,0.35 C26.077,0.35 25.665,0.772 25.665,1.292 L25.665,3.504 C25.665,5.139 24.36,6.464 22.756,6.464 C21.149,6.464 19.847,5.139 19.847,3.504 L19.847,1.292 C19.847,0.772 19.432,0.35 18.921,0.35 L11.214,0.35 C10.703,0.35 10.288,0.772 10.288,1.292 L10.288,3.504 C10.288,5.139 8.986,6.464 7.382,6.464 C5.775,6.464 4.473,5.139 4.473,3.504 L4.473,1.292 C4.473,0.772 4.058,0.35 3.547,0.35 L2.087,0.35 C0.938,0.35 0.006,1.298 0.006,2.468 L0.006,25.903 C0.006,27.072 0.938,28.021 2.087,28.021 L27.912,28.021 C29.061,28.021 29.993,27.073 29.993,25.903 L29.993,2.468 C29.994,1.298 29.062,0.35 27.913,0.35 L27.913,0.35 Z M27.221,24.256 C27.221,24.276 27.221,24.296 27.218,24.316 C27.19,24.793 26.811,25.172 26.343,25.195 C26.326,25.198 26.312,25.198 26.295,25.198 C26.281,25.198 26.264,25.198 26.25,25.195 L3.754,25.195 C3.737,25.198 3.723,25.198 3.706,25.198 C3.692,25.198 3.675,25.198 3.658,25.195 C3.186,25.172 2.808,24.784 2.783,24.304 L2.783,24.255 L2.783,24.206 L2.783,8.871 L2.783,8.822 L2.783,8.776 C2.808,8.276 3.212,7.882 3.706,7.882 L26.295,7.882 C26.786,7.882 27.19,8.27 27.218,8.761 C27.221,8.781 27.221,8.801 27.221,8.821 C27.221,8.844 27.221,8.861 27.218,8.881 L27.218,24.193 C27.221,24.216 27.221,24.236 27.221,24.256 L27.221,24.256 Z" id="Calendar-Icon"></path>
                            <path d="M7.60717251,16.946 C8.24148874,16.946 8.756,17.4599206 8.756,18.0952469 L8.756,19.7976659 C8.756,20.4320794 8.24148874,20.946 7.60717251,20.946 L5.90482749,20.946 C5.27051126,20.946 4.756,20.4320794 4.756,19.7976659 L4.756,18.0952469 C4.756,17.4599206 5.26958254,16.946 5.90482749,16.946 L7.60717251,16.946 Z M13.3199656,16.946 C14.1128609,16.946 14.756,17.4599206 14.756,18.0952469 L14.756,19.7976659 C14.756,20.4320794 14.1128609,20.946 13.3199656,20.946 L11.1955171,20.946 C10.4014609,20.946 9.756,20.4320794 9.756,19.7976659 L9.756,18.0952469 C9.756,17.4599206 10.4014609,16.946 11.1955171,16.946 L13.3199656,16.946 Z M13.3199656,11.946 C14.1128609,11.946 14.756,12.4599206 14.756,13.0943341 L14.756,14.7967531 C14.756,15.4293409 14.1128609,15.946 13.3199656,15.946 L11.1955171,15.946 C10.4014609,15.946 9.756,15.4284281 9.756,14.7967531 L9.756,13.0943341 C9.756,12.4599206 10.4014609,11.946 11.1955171,11.946 L13.3199656,11.946 Z M18.6071725,11.946 C19.2414887,11.946 19.7550713,12.4599206 19.756,13.0943341 L19.756,14.7967531 C19.756,15.4293409 19.2424175,15.946 18.6071725,15.946 L16.9048275,15.946 C16.2695825,15.946 15.756,15.4284281 15.756,14.7967531 L15.756,13.0943341 C15.756,12.4599206 16.2695825,11.946 16.9048275,11.946 L18.6071725,11.946 Z M18.6071725,16.946 C19.2414887,16.946 19.7550713,17.4599206 19.756,18.0952469 L19.756,19.7976659 C19.756,20.4320794 19.2424175,20.946 18.6071725,20.946 L16.9048275,20.946 C16.2695825,20.946 15.756,20.4320794 15.756,19.7976659 L15.756,18.0952469 C15.756,17.4599206 16.2695825,16.946 16.9048275,16.946 L18.6071725,16.946 Z M23.6071725,16.946 C24.2424175,16.946 24.756,17.4599206 24.756,18.0952469 L24.756,19.7976659 C24.756,20.4320794 24.2414887,20.946 23.6071725,20.946 L21.9048275,20.946 C21.2723687,20.946 20.756,20.4320794 20.756,19.7976659 L20.756,18.0952469 C20.756,17.4599206 21.2723687,16.946 21.9048275,16.946 L23.6071725,16.946 Z M23.6071725,11.946 C24.2424175,11.946 24.756,12.4599206 24.756,13.0943341 L24.756,14.7967531 C24.756,15.4293409 24.2414887,15.946 23.6071725,15.946 L21.9048275,15.946 C21.2723687,15.946 20.756,15.4284281 20.756,14.7967531 L20.756,13.0943341 C20.756,12.4599206 21.2723687,11.946 21.9048275,11.946 L23.6071725,11.946 Z" id="Shape"></path>
                        </g>
                        <text id="THIS-WEEK" font-family="OpenSans-Light, Open Sans" font-size="24" font-weight="300" letter-spacing="1.5">
                            <tspan x="52" y="26">THIS WEEK</tspan>
                        </text>
                        <polyline id="Arrow" points="200.001 13.737 207.995 22.005 215.997 13.728 214.319 11.992 207.995 18.533 201.679 12.001 200.001 13.737"></polyline>
                    </g>
                    <g id="Values" transform="translate(28.000000, 107.000000)" font-size="20" font-family="OpenSans-Light, Open Sans" font-weight="300">
                        <text id="70" fill="#A4A4A4">
                            <tspan x="1" y="21">70</tspan>
                        </text>
                        <text id="60" fill="#A4A4A4">
                            <tspan x="1" y="82">60</tspan>
                        </text>
                        <text id="50" fill="#A4A4A4">
                            <tspan x="1" y="143">50</tspan>
                        </text>
                        <text id="40" fill="#A4A4A4">
                            <tspan x="0" y="203">40</tspan>
                        </text>
                        <text id="30" fill="#A4A4A4">
                            <tspan x="0" y="263">30</tspan>
                        </text>
                        <text id="20" fill="#A4A4A4">
                            <tspan x="0" y="323">20</tspan>
                        </text>
                        <text id="10" fill="#A4A4A4">
                            <tspan x="0" y="383">10</tspan>
                        </text>
                        <text id="0" fill="#A4A4A4">
                            <tspan x="18" y="457">0</tspan>
                        </text>
                        <text id="1" fill="#FFFFFF">
                            <tspan x="95" y="469">1</tspan>
                        </text>
                        <text id="2" fill="#FFFFFF">
                            <tspan x="156" y="469">2</tspan>
                        </text>
                        <text id="3" fill="#FFFFFF">
                            <tspan x="215" y="469">3</tspan>
                        </text>
                        <text id="4" fill="#FFFFFF">
                            <tspan x="275" y="469">4</tspan>
                        </text>
                        <text id="5" fill="#FFFFFF">
                            <tspan x="335" y="469">5</tspan>
                        </text>
                        <text id="6" fill="#FFFFFF">
                            <tspan x="395" y="469">6</tspan>
                        </text>
                        <text id="7" fill="#FFFFFF">
                            <tspan x="455" y="469">7</tspan>
                        </text>
                        <text id="8" fill="#FFFFFF">
                            <tspan x="515" y="469">8</tspan>
                        </text>
                        <text id="9" fill="#FFFFFF">
                            <tspan x="575" y="469">9</tspan>
                        </text>
                    </g>
                </g>
                <g id="Navigation-Bar" stroke-width="1" transform="translate(29.000000, 58.000000)" fill="#333333">
                    <path d="M0,16 L30,16 L30,19 L0,19 L0,16 Z M0,25 L30,25 L30,28 L0,28 L0,25 Z M0,34 L30,34 L30,37 L0,37 L0,34 Z" id="Menu"></path>
                    <text id="Statistic" font-family="OpenSans, Open Sans" font-size="34" font-weight="normal">
                        <tspan x="229" y="36">Statistic</tspan>
                    </text>
                </g>
            </g>
            <g id="TRACKING/Webstats" transform="translate(590.000000, 0.000000)">
                <rect id="BG" fill="#FFFFFF" x="2.48598131" y="0" width="795.514019" height="1914"></rect>
                <g id="VIDEOS" stroke-width="1" transform="translate(0.000000, 1511.052632)">
                    <polygon id="Divider-2" fill="#AAAAAA" points="0 103.224172 795.514019 103.224172 795.514019 104.467836 0 104.467836"></polygon>
                    <text id="COMPLETED-TODAY" font-family="OpenSans, Open Sans" font-size="24" font-weight="normal" letter-spacing="1.5" fill="#1C1C1C">
                        <tspan x="50.9626168" y="33.4619883">COMPLETED TODAY</tspan>
                    </text>
                    <text id="5" font-family="OpenSans, Open Sans" font-size="34" font-weight="normal" fill="#1C1C1C">
                        <tspan x="673.700935" y="36">5</tspan>
                    </text>
                    <polyline id="Shape" fill="#333333" points="741.793206 46.0118635 758.236729 29.2348265 741.777047 12.4403782 738.325262 15.9636803 751.331916 29.2360702 738.341421 42.4910487 741.793206 46.0118635"></polyline>
                </g>
                <g id="FOLLOWERS" stroke-width="1" transform="translate(0.000000, 1660.292398)">
                    <polygon id="Divider-2" fill="#AAAAAA" points="0 103.224172 795.514019 103.224172 795.514019 104.467836 0 104.467836"></polygon>
                    <text font-family="OpenSans, Open Sans" font-size="24" font-weight="normal" letter-spacing="1.5" fill="#1C1C1C">
                        <tspan x="50.9626168" y="33.4619883">FOLLOWERS</tspan>
                    </text>
                    <text id="2530" font-family="OpenSans, Open Sans" font-size="34" font-weight="normal" fill="#1C1C1C">
                        <tspan x="599.121495" y="36">2530</tspan>
                    </text>
                    <polyline id="Shape" fill="#333333" points="741.793206 46.0118635 758.236729 29.2348265 741.777047 12.4403782 738.325262 15.9636803 751.331916 29.2360702 738.341421 42.4910487 741.793206 46.0118635"></polyline>
                </g>
                <g id="COMMENTERS" stroke-width="1" transform="translate(0.000000, 1660.292398)">
                    <polygon id="Divider-2" fill="#AAAAAA" points="0 103.224172 795.514019 103.224172 795.514019 104.467836 0 104.467836"></polygon>
                    <text id="FOLLOWERS" font-family="OpenSans, Open Sans" font-size="24" font-weight="normal" letter-spacing="1.5" fill="#1C1C1C">
                        <tspan x="50.9626168" y="33.4619883">FOLLOWERS</tspan>
                    </text>
                    <text id="2530" font-family="OpenSans, Open Sans" font-size="34" font-weight="normal" fill="#1C1C1C">
                        <tspan x="599.121495" y="36">2530</tspan>
                    </text>
                    <polyline id="Shape" fill="#333333" points="741.793206 46.0118635 758.236729 29.2348265 741.777047 12.4403782 738.325262 15.9636803 751.331916 29.2360702 738.341421 42.4910487 741.793206 46.0118635"></polyline>
                </g>
                <g id="COMMENTERS-2" stroke-width="1" transform="translate(0.000000, 1809.532164)">
                    <polygon id="Divider-2" fill="#AAAAAA" points="0 103.224172 795.514019 103.224172 795.514019 104.467836 0 104.467836"></polygon>
                    <text id="COMMENTERS" font-family="OpenSans, Open Sans" font-size="24" font-weight="normal" letter-spacing="1.5" fill="#1C1C1C">
                        <tspan x="50.9626168" y="33.4619883">COMMENTERS</tspan>
                    </text>
                    <text id="253" font-family="OpenSans, Open Sans" font-size="34" font-weight="normal" fill="#1C1C1C">
                        <tspan x="623.981308" y="36">253</tspan>
                    </text>
                    <polyline id="Shape" fill="#333333" points="741.793206 46.0118635 758.236729 29.2348265 741.777047 12.4403782 738.325262 15.9636803 751.331916 29.2360702 738.341421 42.4910487 741.793206 46.0118635"></polyline>
                </g>
                <g id="Photos" stroke-width="1" transform="translate(0.000000, 1361.812865)">
                    <polygon id="Divider-2" fill="#AAAAAA" points="0 103.224172 795.514019 103.224172 795.514019 104.467836 0 104.467836"></polygon>
                    <text id="IN-PROGRESS" font-family="OpenSans, Open Sans" font-size="24" font-weight="normal" letter-spacing="1.5" fill="#1C1C1C">
                        <tspan x="50.9626168" y="33.4619883">IN PROGRESS</tspan>
                    </text>
                    <text id="48" font-family="OpenSans, Open Sans" font-size="34" font-weight="normal" fill="#1C1C1C">
                        <tspan x="648.841121" y="36">48</tspan>
                    </text>
                    <polyline id="Shape" fill="#333333" points="741.793206 46.0118635 758.236729 29.2348265 741.777047 12.4403782 738.325262 15.9636803 751.331916 29.2360702 738.341421 42.4910487 741.793206 46.0118635"></polyline>
                </g>
                <g id="Graph" stroke-width="1" transform="translate(0.000000, 429.064327)">
                    <polygon id="Divider" fill="#AAAAAA" points="0 526.070175 795.514019 526.070175 795.514019 527.31384 0 527.31384"></polygon>
                    <g id="Value" transform="translate(31.074766, 24.873294)" font-size="20" font-family="OpenSans, Open Sans" font-weight="normal">
                        <text id="500" fill="#252525">
                            <tspan x="0" y="21">500</tspan>
                        </text>
                        <text id="400" fill="#252525">
                            <tspan x="0" y="95.619883">400</tspan>
                        </text>
                        <text id="300" fill="#252525">
                            <tspan x="0" y="171.483431">300</tspan>
                        </text>
                        <text id="200" fill="#252525">
                            <tspan x="0" y="246.103314">200</tspan>
                        </text>
                        <text id="100" fill="#252525">
                            <tspan x="0" y="320.723197">100</tspan>
                        </text>
                        <text id="0" fill="#252525">
                            <tspan x="29.8317757" y="396.586745">0</tspan>
                        </text>
                        <text id="2/18" fill="#929292">
                            <tspan x="83.2803738" y="446.333333">2/18</tspan>
                        </text>
                        <text id="2/20" fill="#929292">
                            <tspan x="187.691589" y="446.333333">2/20</tspan>
                        </text>
                        <text id="2/22" fill="#929292">
                            <tspan x="308.261682" y="446.333333">2/22</tspan>
                        </text>
                        <text id="2/24" fill="#929292">
                            <tspan x="430.074766" y="446.333333">2/24</tspan>
                        </text>
                        <text id="2/26" fill="#929292">
                            <tspan x="549.401869" y="446.333333">2/26</tspan>
                        </text>
                        <text id="2/28" fill="#929292">
                            <tspan x="667.485981" y="446.333333">2/28</tspan>
                        </text>
                    </g>
                    <path d="M100.682243,416.62768 L759.46729,416.62768 L759.46729,417.871345 L100.682243,417.871345 L100.682243,416.62768 Z M100.682243,116.904483 L759.46729,116.904483 L759.46729,118.148148 L100.682243,118.148148 L100.682243,116.904483 Z M100.682243,267.387914 L759.46729,267.387914 L759.46729,268.631579 L100.682243,268.631579 L100.682243,267.387914 Z M100.682243,192.768031 L759.46729,192.768031 L759.46729,194.011696 L100.682243,194.011696 L100.682243,192.768031 Z M100.682243,42.2846004 L759.46729,42.2846004 L759.46729,43.5282651 L100.682243,43.5282651 L100.682243,42.2846004 Z M100.682243,342.007797 L759.46729,342.007797 L759.46729,343.251462 L100.682243,343.251462 L100.682243,342.007797 Z" id="Shape" fill="#AAAAAA"></path>
                    <path d="M100.682243,396.729045 L159.102804,396.729045 L159.102804,416.62768 L100.682243,416.62768 L100.682243,396.729045 Z M220.009346,365.637427 L278.429907,365.637427 L278.429907,416.62768 L220.009346,416.62768 L220.009346,365.637427 Z M339.336449,319.621832 L397.757009,319.621832 L397.757009,416.62768 L339.336449,416.62768 L339.336449,319.621832 Z M458.663551,379.317739 L517.084112,379.317739 L517.084112,416.62768 L458.663551,416.62768 L458.663551,379.317739 Z M577.990654,319.621832 L636.411215,319.621832 L636.411215,416.62768 L577.990654,416.62768 L577.990654,319.621832 Z M699.803738,288.530214 L758.224299,288.530214 L758.224299,416.62768 L699.803738,416.62768 L699.803738,288.530214 Z" id="Raws" fill="#000000" opacity="0.2"></path>
                    <ellipse id="Oval-1" stroke="#252525" stroke-width="2" cx="400.242991" cy="134.315789" rx="12.6728972" ry="12.6803119"></ellipse>
                    <path d="M410.052134,140.69543 L457.924682,172.627769 L517.542776,221.093739 L518.326761,220.128311 L518.742262,221.301431 L577.990654,200.306246 L637.239047,221.301431 L637.65459,220.12819 L638.805215,220.59876 L696.427187,79.5323701 L756.010533,153.749294 L757.949598,152.192226 L697.043056,76.3286784 L696.074867,77.1066319 L694.923757,76.6358635 L636.951072,218.560846 L578.405813,197.814823 L577.990654,198.986977 L577.575495,197.814823 L518.569575,218.724086 L459.446636,170.660647 L458.66293,171.625731 L459.352168,170.591002 L411.37398,138.588198 C411.003306,139.336377 410.559581,140.0419 410.052134,140.69543 Z M390.276568,140.521777 L340.131885,181.286426 L280.468411,231.033107 L279.672897,230.077973 L279.444187,231.300495 L220.337019,220.211891 L161.117692,267.119283 L160.346416,266.14425 L159.939336,267.319513 L99.0315514,246.177212 L99.8469533,243.826686 L160.109951,264.745595 L219.238692,217.909957 L220.009465,218.884355 L220.238056,217.662468 L279.327295,228.747708 L338.540935,179.37625 L339.311589,180.301536 L338.552121,179.3663 L388.981705,138.370043 C389.341271,139.132966 389.776085,139.853404 390.276568,140.521777 Z" id="Line" fill="#252525"></path>
                    <path d="M100.060748,238.161793 C102.806514,238.161793 105.03271,240.389197 105.03271,243.136452 C105.03271,245.883708 102.806514,248.111111 100.060748,248.111111 C97.3149813,248.111111 95.088785,245.883708 95.088785,243.136452 C95.088785,240.389197 97.3149813,238.161793 100.060748,238.161793 Z M159.724299,259.304094 C162.470065,259.304094 164.696262,261.531497 164.696262,264.278752 C164.696262,267.026008 162.470065,269.253411 159.724299,269.253411 C156.978533,269.253411 154.752336,267.026008 154.752336,264.278752 C154.752336,261.531497 156.978533,259.304094 159.724299,259.304094 Z M219.38785,213.288499 C222.133617,213.288499 224.359813,215.515903 224.359813,218.263158 C224.359813,221.010413 222.133617,223.237817 219.38785,223.237817 C216.642084,223.237817 214.415888,221.010413 214.415888,218.263158 C214.415888,215.515903 216.642084,213.288499 219.38785,213.288499 Z M279.051402,223.237817 C281.797168,223.237817 284.023364,225.46522 284.023364,228.212476 C284.023364,230.959731 281.797168,233.187135 279.051402,233.187135 C276.305636,233.187135 274.079439,230.959731 274.079439,228.212476 C274.079439,225.46522 276.305636,223.237817 279.051402,223.237817 Z M338.714953,174.734893 C341.46072,174.734893 343.686916,176.962296 343.686916,179.709552 C343.686916,182.456807 341.46072,184.684211 338.714953,184.684211 C335.969187,184.684211 333.742991,182.456807 333.742991,179.709552 C333.742991,176.962296 335.969187,174.734893 338.714953,174.734893 Z M458.042056,164.785575 C460.787822,164.785575 463.014019,167.012979 463.014019,169.760234 C463.014019,172.507489 460.787822,174.734893 458.042056,174.734893 C455.29629,174.734893 453.070093,172.507489 453.070093,169.760234 C453.070093,167.012979 455.29629,164.785575 458.042056,164.785575 Z M517.705607,213.288499 C520.451374,213.288499 522.67757,215.515903 522.67757,218.263158 C522.67757,221.010413 520.451374,223.237817 517.705607,223.237817 C514.959841,223.237817 512.733645,221.010413 512.733645,218.263158 C512.733645,215.515903 514.959841,213.288499 517.705607,213.288499 Z M577.369159,192.146199 C580.114925,192.146199 582.341121,194.373602 582.341121,197.120858 C582.341121,199.868113 580.114925,202.095517 577.369159,202.095517 C574.623393,202.095517 572.397196,199.868113 572.397196,197.120858 C572.397196,194.373602 574.623393,192.146199 577.369159,192.146199 Z M637.03271,213.288499 C639.778477,213.288499 642.004673,215.515903 642.004673,218.263158 C642.004673,221.010413 639.778477,223.237817 637.03271,223.237817 C634.286944,223.237817 632.060748,221.010413 632.060748,218.263158 C632.060748,215.515903 634.286944,213.288499 637.03271,213.288499 Z M696.696262,71.5107212 C699.442028,71.5107212 701.668224,73.7381248 701.668224,76.4853801 C701.668224,79.2326355 699.442028,81.460039 696.696262,81.460039 C693.950495,81.460039 691.724299,79.2326355 691.724299,76.4853801 C691.724299,73.7381248 693.950495,71.5107212 696.696262,71.5107212 Z M756.359813,147.374269 C759.105579,147.374269 761.331776,149.601673 761.331776,152.348928 C761.331776,155.096183 759.105579,157.323587 756.359813,157.323587 C753.614047,157.323587 751.38785,155.096183 751.38785,152.348928 C751.38785,149.601673 753.614047,147.374269 756.359813,147.374269 Z" id="Points" fill="#1D57FF"></path>
                    <g id="Bubble-+-387" transform="translate(316.962617, 0.000000)">
                        <polygon id="Bubble" fill="#E9E9E9" points="0 0 164.074766 0 164.074766 99.4931774 0 99.4931774"></polygon>
                        <text id="387" font-family="OpenSans, Open Sans" font-size="24" font-weight="normal" fill="#262626">
                            <tspan x="59.6635514" y="55.8479532">387</tspan>
                        </text>
                    </g>
                </g>
                <g id="Views-Likes-Comments" stroke-width="1" transform="translate(0.000000, 994.931774)">
                    <text id="95302" font-family="OpenSans-Semibold, Open Sans" font-size="45" font-weight="500" letter-spacing="2.5" fill="#262626">
                        <tspan x="114.35514" y="48">95302</tspan>
                    </text>
                    <polygon id="Divider" fill="#AAAAAA" points="0 320.865497 795.514019 320.865497 795.514019 322.109162 0 322.109162"></polygon>
                    <text id="VIEWS-TOTAL" font-family="OpenSans, Open Sans" font-size="24" font-weight="normal" letter-spacing="1.5" fill="#1C1C1C">
                        <tspan x="118.084112" y="100.619883">VIEWS TOTAL</tspan>
                    </text>
                    <text id="2321" font-family="OpenSans-Semibold, Open Sans" font-size="45" font-weight="500" letter-spacing="2.5" fill="#262626">
                        <tspan x="454.934579" y="48">2321</tspan>
                    </text>
                    <text id="INCOMPLETE" font-family="OpenSans, Open Sans" font-size="24" font-weight="normal" letter-spacing="1.5" fill="#1C1C1C">
                        <tspan x="458.663551" y="100.619883">INCOMPLETE</tspan>
                    </text>
                    <text id="653" font-family="OpenSans-Semibold, Open Sans" font-size="45" font-weight="500" letter-spacing="2.5" fill="#262626">
                        <tspan x="114.35514" y="209.676413">653</tspan>
                    </text>
                    <text id="COMPLETED" font-family="OpenSans, Open Sans" font-size="24" font-weight="normal" letter-spacing="1.5" fill="#1C1C1C">
                        <tspan x="118.084112" y="262.296296">COMPLETED</tspan>
                    </text>
                    <text id="1363" font-family="OpenSans-Semibold, Open Sans" font-size="45" font-weight="500" letter-spacing="2.5" fill="#262626">
                        <tspan x="454.934579" y="209.676413">1363</tspan>
                    </text>
                    <text id="VIEWS" font-family="OpenSans, Open Sans" font-size="24" font-weight="normal" letter-spacing="1.5" fill="#1C1C1C">
                        <tspan x="458.663551" y="262.296296">VIEWS</tspan>
                    </text>
                </g>
                <g id="Tabs" stroke-width="1" transform="translate(67.121495, 345.738791)">
                    <path d="M37.2897196,0 L140.457944,0 C161.051813,0 177.747664,16.7036608 177.747664,37.3099415 C177.747664,57.9149786 161.051813,74.619883 140.457944,74.619883 L37.2897196,74.619883 C16.6946075,74.619883 0,57.9149786 0,37.3099415 C0,16.7036608 16.6946075,0 37.2897196,0 L37.2897196,0 Z" id="Selected" fill="#262626"></path>
                    <text id="VIEWS" font-family="OpenSans, Open Sans" font-size="24" font-weight="normal" letter-spacing="1" fill="#FFFFFF">
                        <tspan x="45.9906542" y="40.9239766">VIEWS</tspan>
                    </text>
                    <text id="COMPLETE" font-family="OpenSans, Open Sans" font-size="24" font-weight="normal" letter-spacing="1" fill="#262626">
                        <tspan x="252.327103" y="40.9239766">COMPLETE</tspan>
                    </text>
                    <text id="INCOMPLETE" font-family="OpenSans, Open Sans" font-size="24" font-weight="normal" letter-spacing="1" fill="#262626">
                        <tspan x="484.766355" y="40.9239766">INCOMPLETE</tspan>
                    </text>
                </g>
                <g id="Followers" stroke-width="1" transform="translate(1.242991, 159.189084)">
                    <polygon id="BG" fill="#252525" points="0 0 795.514019 0 795.514019 149.239766 0 149.239766"></polygon>
                    <text id="FOLLOWERS-2530" font-family="OpenSans, Open Sans" font-size="24" font-weight="normal" letter-spacing="1" fill="#FFFFFF">
                        <tspan x="88.2523364" y="79.4775828">FOLLOWERS </tspan>
                        <tspan x="242.02968" y="79.4775828" font-family="OpenSans-Semibold, Open Sans" font-weight="500">2530</tspan>
                    </text>
                    <text id="FOLLOWING-652" font-family="OpenSans, Open Sans" font-size="24" font-weight="normal" letter-spacing="1" fill="#FFFFFF">
                        <tspan x="466.121495" y="79.4775828">FOLLOWING </tspan>
                        <tspan x="620.801183" y="79.4775828" font-family="OpenSans-Semibold, Open Sans" font-weight="500">652</tspan>
                    </text>
                </g>
                <g id="Navigation-Bar" stroke-width="1" transform="translate(37.289720, 72.132554)" fill="#333333">
                    <path d="M0,19.8986355 L37.2897196,19.8986355 L37.2897196,23.6296296 L0,23.6296296 L0,19.8986355 Z M0,31.0916179 L37.2897196,31.0916179 L37.2897196,34.8226121 L0,34.8226121 L0,31.0916179 Z M0,42.2846004 L37.2897196,42.2846004 L37.2897196,46.0155945 L0,46.0155945 L0,42.2846004 Z" id="Menu"></path>
                    <text id="Statistic" font-family="OpenSans, Open Sans" font-size="34" font-weight="normal" letter-spacing="0.5">
                        <tspan x="284.64486" y="36">Statistic</tspan>
                    </text>
                </g>
            </g>
        </g>
    </g>
</svg>